<?xml version="1.0" encoding="UTF-8" standalone="no"?>
<!-- Generator: Adobe Illustrator 15.0.2, SVG Export Plug-In . SVG Version: 6.00 Build 0)  -->

<svg
   xmlns:dc="http://purl.org/dc/elements/1.1/"
   xmlns:cc="http://creativecommons.org/ns#"
   xmlns:rdf="http://www.w3.org/1999/02/22-rdf-syntax-ns#"
   xmlns:svg="http://www.w3.org/2000/svg"
   xmlns="http://www.w3.org/2000/svg"
   xmlns:sodipodi="http://sodipodi.sourceforge.net/DTD/sodipodi-0.dtd"
   xmlns:inkscape="http://www.inkscape.org/namespaces/inkscape"
   version="1.1"
   id="Layer_1"
   x="0px"
   y="0px"
   width="830.09467"
   height="440.23138"
   viewBox="0 0 830.09467 440.23138"
   enable-background="new 0 0 864 864"
   xml:space="preserve"
   sodipodi:docname="OpenChemistry_Logo.svg"
   inkscape:version="0.92.3 (2405546, 2018-03-11)"><metadata
   id="metadata55"><rdf:RDF><cc:Work
       rdf:about=""><dc:format>image/svg+xml</dc:format><dc:type
         rdf:resource="http://purl.org/dc/dcmitype/StillImage" /><dc:title></dc:title></cc:Work></rdf:RDF></metadata><defs
   id="defs53" /><sodipodi:namedview
   pagecolor="#ffffff"
   bordercolor="#666666"
   borderopacity="1"
   objecttolerance="10"
   gridtolerance="10"
   guidetolerance="10"
   inkscape:pageopacity="0"
   inkscape:pageshadow="2"
   inkscape:window-width="2560"
   inkscape:window-height="1412"
   id="namedview51"
   showgrid="false"
   inkscape:zoom="0.27314815"
   inkscape:cx="413.15268"
   inkscape:cy="187.259"
   inkscape:window-x="2560"
   inkscape:window-y="0"
   inkscape:window-maximized="1"
   inkscape:current-layer="Layer_1"
   fit-margin-top="0"
   fit-margin-left="0"
   fit-margin-right="0"
   fit-margin-bottom="0" />
<path
   d="m 164.82468,352.99838 -147.8,-84.999 -0.277,-170.481001 147.51,-85.493 147.79,85.006 0.277,170.492001 z m -125.202,-98.092 125.158,71.975 124.904,-72.381 -0.236,-144.374 -125.147,-71.982001 -124.915,72.398001 z"
   id="path2"
   inkscape:connector-curvature="0"
   style="fill:#414042" />
<path
   d="m 52.36268,247.14538 c -7.772,-13.403 -24.952,-17.979 -38.358,-10.216 -13.41900048,7.772 -17.9890005,24.956 -10.2170005,38.371 7.7710005,13.413 24.9510005,17.986 38.3590005,10.215 13.418,-7.785 17.987,-24.955 10.216,-38.37 z"
   id="path4"
   inkscape:connector-curvature="0"
   style="fill:#414042" />
<path
   d="m 188.57268,319.89338 c -7.782,-13.414 -24.953,-17.987 -38.369,-10.215 -13.409,7.784 -17.989,24.953 -10.206,38.356 7.772,13.418 24.941,17.989 38.357,10.22 13.419,-7.774 17.991,-24.946 10.218,-38.361 z"
   id="path6"
   inkscape:connector-curvature="0"
   style="fill:#414042" />
<path
   d="m 324.78068,247.14538 c -7.773,-13.403 -24.951,-17.979 -38.358,-10.216 -13.418,7.772 -17.988,24.956 -10.217,38.371 7.773,13.413 24.953,17.986 38.358,10.215 13.419,-7.785 17.989,-24.955 10.217,-38.37 z"
   id="path8"
   inkscape:connector-curvature="0"
   style="fill:#414042" />
<path
   d="m 324.78068,89.732379 c -7.773,-13.415 -24.941,-17.988 -38.358,-10.213 -13.418,7.78 -17.988,24.952001 -10.217,38.366001 7.773,13.409 24.953,17.99 38.369,10.219 13.408,-7.784 17.978,-24.955 10.206,-38.372001 z"
   id="path10"
   inkscape:connector-curvature="0"
   style="fill:#414042" />
<path
   d="m 188.56568,13.996379 c -7.772,-13.40299999 -24.943,-17.987 -38.359,-10.204 -13.409,7.76 -17.989,24.942 -10.206,38.357 7.771,13.418 24.941,17.988 38.357,10.219 13.419,-7.783 17.992,-24.954 10.208,-38.372 z"
   id="path12"
   inkscape:connector-curvature="0"
   style="fill:#414042" />
<path
   d="m 52.35368,89.732379 c -7.772,-13.415 -24.943,-17.988 -38.359,-10.213 -13.41500048,7.78 -17.9770005,24.952001 -10.2040005,38.366001 7.7720005,13.409 24.9410005,17.99 38.3570005,10.219 13.406,-7.784 17.989,-24.955 10.206,-38.372001 z"
   id="path14"
   inkscape:connector-curvature="0"
   style="fill:#414042" />
<g
   id="g22"
   transform="translate(-18.84732,-179.02762)">
	<path
   d="m 487.234,381.512 c 0,20.739 -4.965,37.468 -14.89,50.185 -9.927,12.719 -23.62,19.077 -41.079,19.077 -8.863,0 -16.64,-1.484 -23.331,-4.453 -6.693,-2.969 -12.386,-7.422 -17.083,-13.361 v 70.326 H 364.662 V 304.14 h 20.074 l 4.121,18.612 c 4.697,-6.913 10.546,-12.185 17.548,-15.82 7,-3.633 15.155,-5.451 24.461,-5.451 17.814,0 31.661,7.069 41.544,21.204 9.881,14.137 14.823,32.815 14.823,56.034 v 2.793 z m -26.189,-2.792 c 0,-16.306 -3.214,-29.712 -9.639,-40.214 -6.427,-10.502 -15.886,-15.753 -28.383,-15.753 -7.534,0 -13.958,1.708 -19.276,5.118 -5.318,3.413 -9.618,8.088 -12.896,14.025 v 69.528 c 3.278,5.938 7.578,10.569 12.896,13.892 5.317,3.324 11.832,4.985 19.542,4.985 12.406,0 21.802,-4.541 28.183,-13.626 6.382,-9.083 9.572,-20.805 9.572,-35.163 v -2.792 z"
   id="path16"
   inkscape:connector-curvature="0"
   style="fill:#221f1f" />
	<path
   d="m 581.755,450.773 c -21.449,0 -38.22,-6.624 -50.317,-19.875 -12.098,-13.248 -18.146,-30.597 -18.146,-52.046 v -5.85 c 0,-20.649 5.959,-37.732 17.88,-51.249 11.919,-13.514 26.477,-20.273 43.671,-20.273 19.231,0 33.655,5.982 43.272,17.947 9.615,11.965 14.424,27.874 14.424,47.726 v 13.826 h -91.994 l -0.267,0.665 c -0.089,14.357 3.301,26.057 10.17,35.096 6.867,9.04 17.304,13.56 31.308,13.56 8.685,0 15.598,-0.908 20.739,-2.725 5.139,-1.815 11.21,-4.586 18.213,-8.309 l 6.514,18.479 c -4.786,3.456 -10.614,6.492 -17.481,9.105 -6.871,2.615 -16.2,3.923 -27.986,3.923 z m -6.913,-128.686 c -9.129,0 -16.684,3.523 -22.666,10.568 -5.982,7.046 -9.638,16.065 -10.968,27.054 l 0.267,0.665 h 64.875 v -2.127 c 0,-10.457 -2.572,-19.098 -7.711,-25.923 -5.142,-6.824 -13.075,-10.237 -23.797,-10.237 z"
   id="path18"
   inkscape:connector-curvature="0"
   style="fill:#221f1f" />
	<path
   d="m 685.316,304.14 1.861,21.403 c 4.785,-7.621 10.789,-13.537 18.013,-17.748 7.223,-4.208 15.442,-6.314 24.661,-6.314 15.508,0 27.519,4.543 36.026,13.626 8.509,9.085 12.763,23.111 12.763,42.076 v 90.799 h -26.189 v -90.267 c 0,-12.673 -2.505,-21.669 -7.511,-26.987 -5.009,-5.318 -12.652,-7.977 -22.933,-7.977 -8.065,0 -14.912,1.618 -20.539,4.852 -5.63,3.236 -10.083,7.777 -13.36,13.626 V 447.981 H 661.919 V 304.14 Z"
   id="path20"
   inkscape:connector-curvature="0"
   style="fill:#221f1f" />
</g>
<g
   id="g42"
   transform="translate(-18.84732,-179.02762)">
	<path
   d="m 316.997,560.008 0.131,0.394 c 0.174,8.968 -2.975,16.47 -9.449,22.507 -6.474,6.036 -15.026,9.055 -25.656,9.055 -10.805,0 -19.608,-3.827 -26.41,-11.482 -6.802,-7.654 -10.203,-17.366 -10.203,-29.134 v -16.994 c 0,-11.767 3.401,-21.489 10.203,-29.166 6.802,-7.678 15.605,-11.516 26.41,-11.516 10.804,0 19.4,2.877 25.787,8.628 6.386,5.753 9.492,13.376 9.317,22.867 l -0.131,0.394 h -12.401 c 0,-6.692 -1.968,-11.984 -5.905,-15.879 -3.937,-3.893 -9.493,-5.84 -16.667,-5.84 -7.218,0 -12.97,2.91 -17.257,8.728 -4.288,5.818 -6.43,13.035 -6.43,21.652 v 17.126 c 0,8.705 2.143,15.968 6.43,21.784 4.287,5.818 10.039,8.728 17.257,8.728 7.174,0 12.729,-1.936 16.667,-5.808 3.937,-3.871 5.905,-9.219 5.905,-16.043 h 12.402 z"
   id="path24"
   inkscape:connector-curvature="0"
   style="fill:#221f1f" />
	<path
   d="m 345.08,529.104 c 2.45,-3.412 5.457,-6.069 9.022,-7.973 3.564,-1.903 7.513,-2.854 11.844,-2.854 7.567,0 13.461,2.275 17.683,6.824 4.221,4.55 6.332,11.549 6.332,20.997 v 44.487 h -12.926 v -44.618 c 0,-5.861 -1.258,-10.192 -3.773,-12.992 -2.516,-2.799 -6.266,-4.199 -11.253,-4.199 -3.85,0 -7.196,0.754 -10.04,2.264 -2.844,1.509 -5.14,3.62 -6.89,6.332 v 53.214 h -12.926 v -102.36 h 12.926 v 40.878 z"
   id="path26"
   inkscape:connector-curvature="0"
   style="fill:#221f1f" />
	<path
   d="m 439.305,591.963 c -10.587,0 -18.865,-3.27 -24.836,-9.81 -5.971,-6.539 -8.957,-15.102 -8.957,-25.688 v -2.887 c 0,-10.192 2.941,-18.624 8.825,-25.295 5.883,-6.671 13.068,-10.007 21.555,-10.007 9.491,0 16.61,2.953 21.357,8.858 4.746,5.905 7.119,13.758 7.119,23.556 v 6.824 h -45.406 l -0.131,0.328 c -0.044,7.087 1.629,12.86 5.02,17.322 3.39,4.462 8.54,6.693 15.453,6.693 4.286,0 7.698,-0.448 10.235,-1.346 2.537,-0.896 5.533,-2.264 8.989,-4.101 l 3.216,9.12 c -2.362,1.706 -5.239,3.205 -8.629,4.495 -3.389,1.292 -7.994,1.938 -13.81,1.938 z m -3.412,-63.516 c -4.506,0 -8.235,1.738 -11.188,5.216 -2.953,3.478 -4.757,7.93 -5.414,13.354 l 0.131,0.328 h 32.021 v -1.05 c 0,-5.161 -1.27,-9.427 -3.806,-12.796 -2.537,-3.367 -6.452,-5.052 -11.744,-5.052 z"
   id="path28"
   inkscape:connector-curvature="0"
   style="fill:#221f1f" />
	<path
   d="m 490.419,519.589 0.918,9.317 c 2.318,-3.368 5.26,-5.981 8.825,-7.841 3.565,-1.86 7.71,-2.789 12.435,-2.789 4.725,0 8.781,1.094 12.172,3.281 3.39,2.188 5.938,5.469 7.645,9.842 2.273,-4.068 5.237,-7.271 8.891,-9.612 3.651,-2.34 7.928,-3.511 12.828,-3.511 7.218,0 12.926,2.483 17.125,7.447 4.199,4.966 6.3,12.435 6.3,22.408 v 42.453 H 564.63 V 548 c 0,-6.998 -1.204,-11.952 -3.608,-14.861 -2.406,-2.909 -5.994,-4.363 -10.762,-4.363 -4.419,0 -7.994,1.531 -10.728,4.593 -2.734,3.063 -4.342,6.934 -4.823,11.614 v 0.524 45.078 H 521.718 V 548 c 0,-6.648 -1.237,-11.515 -3.708,-14.599 -2.472,-3.084 -6.026,-4.626 -10.662,-4.626 -3.938,0 -7.175,0.81 -9.711,2.428 -2.538,1.618 -4.484,3.894 -5.84,6.824 v 52.558 H 478.87 v -70.996 z"
   id="path30"
   inkscape:connector-curvature="0"
   style="fill:#221f1f" />
	<path
   d="m 610.299,501.413 h -12.927 v -13.188 h 12.927 z m 0,89.172 h -12.927 v -70.996 h 12.927 z"
   id="path32"
   inkscape:connector-curvature="0"
   style="fill:#221f1f" />
	<path
   d="m 671.452,571.491 c 0,-2.844 -1.083,-5.161 -3.248,-6.956 -2.165,-1.793 -6.267,-3.367 -12.303,-4.724 -8.355,-1.793 -14.775,-4.309 -19.259,-7.546 -4.484,-3.237 -6.726,-7.567 -6.726,-12.992 0,-5.774 2.461,-10.717 7.382,-14.829 4.922,-4.111 11.297,-6.168 19.127,-6.168 8.049,0 14.567,2.188 19.554,6.562 4.987,4.375 7.37,9.472 7.152,15.289 L 683,540.521 h -12.335 c 0,-3.062 -1.346,-5.84 -4.036,-8.333 -2.689,-2.494 -6.092,-3.74 -10.203,-3.74 -4.55,0 -7.95,1.028 -10.203,3.084 -2.253,2.057 -3.379,4.506 -3.379,7.349 0,2.8 0.973,4.965 2.92,6.496 1.946,1.531 5.96,2.931 12.04,4.199 8.705,1.837 15.311,4.44 19.816,7.809 4.505,3.368 6.758,7.765 6.758,13.188 0,6.299 -2.548,11.439 -7.644,15.42 -5.097,3.98 -11.757,5.971 -19.98,5.971 -9.055,0 -16.186,-2.297 -21.391,-6.89 -5.206,-4.593 -7.677,-9.951 -7.414,-16.076 l 0.131,-0.394 h 12.336 c 0.219,4.594 1.924,7.951 5.118,10.072 3.192,2.122 6.933,3.183 11.22,3.183 4.594,0 8.191,-0.974 10.794,-2.92 2.603,-1.946 3.904,-4.43 3.904,-7.448 z"
   id="path34"
   inkscape:connector-curvature="0"
   style="fill:#221f1f" />
	<path
   d="m 716.924,502.463 v 17.126 h 13.451 v 9.58 h -13.451 v 43.109 c 0,3.325 0.689,5.665 2.066,7.021 1.378,1.356 3.204,2.034 5.479,2.034 0.743,0 1.563,-0.087 2.461,-0.263 0.896,-0.174 1.694,-0.394 2.395,-0.656 l 1.771,8.858 c -1.007,0.787 -2.45,1.433 -4.33,1.936 -1.882,0.503 -3.74,0.755 -5.578,0.755 -5.206,0 -9.372,-1.585 -12.499,-4.757 -3.128,-3.171 -4.691,-8.146 -4.691,-14.928 v -43.109 h -11.221 v -9.58 h 11.221 v -17.126 z"
   id="path36"
   inkscape:connector-curvature="0"
   style="fill:#221f1f" />
	<path
   d="m 776.896,531.006 -6.628,-0.394 c -3.411,0 -6.288,0.81 -8.628,2.428 -2.341,1.619 -4.146,3.894 -5.413,6.824 v 50.721 H 743.3 v -70.996 h 11.549 l 0.918,11.023 c 1.969,-3.849 4.462,-6.867 7.48,-9.055 3.018,-2.188 6.518,-3.281 10.499,-3.281 0.961,0 1.88,0.077 2.756,0.229 0.874,0.154 1.596,0.318 2.165,0.492 z"
   id="path38"
   inkscape:connector-curvature="0"
   style="fill:#221f1f" />
	<path
   d="m 814.428,564.273 2.297,8.924 h 0.394 l 17.454,-53.608 h 14.369 l -29.854,81.889 c -1.794,4.767 -4.363,8.923 -7.71,12.467 -3.347,3.543 -7.863,5.314 -13.55,5.314 -1.05,0 -2.385,-0.121 -4.003,-0.36 -1.618,-0.241 -2.865,-0.471 -3.739,-0.689 l 1.312,-10.17 c -0.262,-0.045 0.514,0 2.33,0.131 1.814,0.131 2.963,0.197 3.444,0.197 2.756,0 5.009,-1.226 6.759,-3.675 1.749,-2.45 3.215,-5.162 4.396,-8.137 l 3.083,-7.414 -26.377,-69.553 h 14.436 z"
   id="path40"
   inkscape:connector-curvature="0"
   style="fill:#221f1f" />
</g>
<g
   id="g48"
   transform="translate(-18.84732,-179.02762)">
	<g
   id="g46">
		<path
   d="m 183.131,462.034 c -55.412,0 -100.493,-45.083 -100.493,-100.497 0,-55.412 45.081,-100.494 100.493,-100.494 55.413,0 100.495,45.082 100.495,100.494 0,55.414 -45.082,100.497 -100.495,100.497 z m 0,-180.414 c -44.066,0 -79.916,35.851 -79.916,79.917 0,44.067 35.85,79.92 79.916,79.92 44.067,0 79.918,-35.853 79.918,-79.92 0,-44.066 -35.851,-79.917 -79.918,-79.917 z"
   id="path44"
   inkscape:connector-curvature="0"
   style="fill:#221f1f" />
	</g>
</g>
</svg>